<?xml version="1.0" encoding="UTF-8"?>
<svg xmlns="http://www.w3.org/2000/svg" xmlns:xlink="http://www.w3.org/1999/xlink" width="500" height="580" viewBox="0 0 500 580">
  <title>Coat of Arms of Kysucké Nové Mesto</title>
  <path id="field" d="M0,0V330C0,468.07,111.93,580,250,580S500,468.07,500,330V0Z" fill="#199441"/>
  <g id="coa">
    <g fill="#fdda2a" stroke="#111" stroke-width="2.6">
      <g id="c8">
        <g id="c4">
          <g id="c2">
            <circle id="c" cx="225" cy="41" r="5"/>
            <use xlink:href="#c" transform="rotate(11 252 89)"/>
          </g>
          <use xlink:href="#c2" transform="rotate(22 252 89)"/>
        </g>
        <use xlink:href="#c4" transform="rotate(44 252 89)"/>
      </g>
      <use xlink:href="#c8" transform="rotate(88 252 89)"/>
      <use xlink:href="#c8" transform="rotate(-88 252 89)"/>
    </g>
    <path d="M391.62,275.54a337.89,337.89,0,0,0-28.44-85.44c-2.1-4.86-4.69-9.6-8.52-13.33-2-2-4.5-4.31-7.62-3.73-10.08,1-20,3.25-29.93,5-9.47-9.67-21.56-16.29-32.73-23.74a50.43,50.43,0,0,0,.82-6.81c0-5.83,6.34-13.07,6.42-26.26.12-19,5.94-48.8-13.51-60-5.21-4.56-10.42-9.88-17.44-11.46-15.61-2.55-33.58,4.07-41.07,18.63-6,12.34-12.19,25-13.66,38.8-2.68,13.13-5.68,26.17-7.53,39.46,1.81,2.49-.21,5.53-.26,8.27-11.64,8-29.53,17.17-35.35,30.25-4,17.6-4.87,35.66-6.51,53.56-.94,12,1.11,24,2.7,35.84,1.28,27,18.57,16.61,36.3,12.24a22,22,0,0,0,5.28,8.49,66.51,66.51,0,0,0-.7,12.45c-7.51,6.76-6,13.42-5.74,22.5-4.27,15.51-3,21.21.35,36.56-7.61,6.3-6.43,17.61-4.57,26.3-7.91,14.23-3.38,16.33-3,29.9-2.09,6.29-6.67,12.24-5.52,19.23,1.12,7.26,4.56,13.89,7,20.76-2.5,14.21-5.81,28.26-8.47,42.44-.21,2.89-3.18,4.05-5.06,5.77-3.41,2.39-5.66,6.15-9.44,8.07-8.12,3.94-13.52,20.27-2.36,23.56,7.17,1.17,14.28-.74,21.37-1.59a18.61,18.61,0,0,0,2.18,7.07,132.84,132.84,0,0,0,19.23.93c7.24-.06,13.44-4.24,20.15-6.32,15,7,22.2,5.6,36.71-1.27,7.85,8.06,31.64,13.45,40.14,4.57,9.33.9,31.12,2.41,21.74-13-2.77-4.74-5.45-9.54-8.24-14.26-.62-1.19-1.51-2.45-1-3.84,7.25-35.07,5.5-71,6.89-106.62,2.82,4.4,4.62,9.32,6.82,14,2.93,5.94,4,5.87,10.26,5.76.36-16.05,21.92-20.9,26-33.37,1.34-4.1.31-8.38-.59-12.44-.42-1.46,1-2.49,1.59-3.66-.76-16.81-3.41-33.49-4.15-50.3C384.37,319.24,400.07,300.28,391.62,275.54Z" fill="#111"/>
    <path d="M301.44,298.8c-3.82,19-10.54,38.72-23.3,53.45-25.39,29.31-46.29,62.35-71.29,26.83-9.82-14-14.91-29.82-9.48-44.78l.61.06c7.86,15.69,14.08,24.74,30.16,33.05,27.89,13.63,54.23-42,63.12-61.81C294.3,302.89,298.06,301.08,301.44,298.8ZM267.79,82c2.33,5.3,6.86,9.17,11.39,12.59C281.38,84.68,276.22,83.61,267.79,82Zm12.84,71.53c.69-4.59.4-9.33,2.09-13.73-5,2.31-12.63,2.38-14.28,8.71A84.46,84.46,0,0,0,280.63,153.56Zm10,185.34c-8.31,14.67-19.68,27.2-31,39.62-26.75,28.62-41.81,25.41-63.12-8.65-4.81,4.92-6,15.67-2.8,21.19C228.19,450.26,278.46,375.31,290.62,338.9Zm-97.79,57c-5.38,8.2-3.46,16.33-1.67,25.28,9.26-4.87,25.34-5.6,25.34-5.6C203.34,411.09,197.94,403.05,192.83,395.94Zm98.83-135c-11.24,12.18-27.06,18.51-42.74,22.8-35.1,8.74-34.25-8.78-48.24,0a2.19,2.19,0,0,0-1.24,3.22c7.32,17.86,48.34,8,63.3,5.1,9.53-2.69,17.41-9.25,26.64-12.48,1.5,8.16-4.17,16.19-9.05,22.27-14.5,19.26-30.15,37.91-56.29,37.85,17.06-6.8,28-7.73,40.7-23.54-17.53,9.41-49.14,17.91-60.9-3.55-.54-.81-2-1.75-2.75-.71-4.35,4.07-4.6,15-1.25,19.64,4,6.57,6.74,14,11.82,19.86,6.74,6.43,19.79,18,29.66,15,24.77-11.74,35.94-38.5,46.95-61.94,3.74-5.16,11.35-6,14.55-11.76C306.11,281.14,305.36,264.74,291.66,260.92Zm-26.08-78.83a91.15,91.15,0,0,0-5.32-9.25,56.78,56.78,0,0,1-10.14,4.46,5.52,5.52,0,0,1-.09,1.15C254.88,179.7,261.13,181.54,265.58,182.09Zm9.19,108.47c-14.77,7-30.87,8.57-47,10-7.92,0-15.65-2.2-23.41-3.54-2,8.21-.3,11.83,4.84,18.18,7.06,11.71,33,7.31,43.86,3.22,11.9-4.15,29.58-19.62,32.72-32.06a130.58,130.58,0,0,1-37.14,20.58c-8.18,1.52-16.73,3.61-25,1.21,5.54-1.7,11.41-1,17-2.14C253,303.58,264.3,297.14,274.77,290.56ZM253.88,136.29c-2.63-1.07-5.67-.24-8.44-.16,1.14,2.75,4.29,2.79,6.84,2.86C253.83,139.07,256.14,137.48,253.88,136.29Zm35.85,78c.68,6.47,1.29,12.94,2.28,19.37a66.86,66.86,0,0,0,2.7-14.11A60.36,60.36,0,0,0,289.73,214.27Zm9.28-8c-5.48-5.69-12.15-10.12-17.59-15.86-4.9-5.65-10.37-10.87-14.36-17.24-2.16-3.53-4-7.26-6.56-10.56-.21,9.69,16.37,30.14,22.15,38.8,3.78,5.64,9,10.13,13.47,15.14C297.13,213.13,298.52,209.79,299,206.26Zm-56.9-69.34a18.31,18.31,0,0,0-10.51,8.4c-1.94,3.66-.42,7.86,0,11.72s4.42,6,7.59,7.36c2.14-.32,3.39-2.73,5.39-3.6,9.48,15.18,24.7-11.09,13.21-21.07C253.05,143.57,245.06,142.46,242.11,136.92Zm32.57,240.4c-11.72,16.95-28.26,35.52-48.78,40.16-10.1,1.55-26.91,2.33-35.2,7.89-7.72,9.9-6.08,20.8-.38,31.24,4.77-14.32,26.27-14.53,38.51-19.45A187.93,187.93,0,0,0,253.68,427c24.13-15.49,41.48-40.91,50.54-67.85,7.68-19.39,7.44-41.74,1-61.36C297.5,323.3,296.31,346,274.68,377.32ZM304.26,368c-4.49,10.37-9.06,20.61-16.16,29.53,4.1,16.59,5.63,33.49,7.51,50.4C305.19,422.5,305.12,394.86,304.26,368Zm-42.05,140.6c.91-30-1-60.48,7.47-89.66-3.53,2.39-6.48,5.53-10.11,7.76-1.68,1.17-3.88,2.08-4.5,4.23-6.59,26.23-20.9,50-24.56,76.95C241.4,503.69,251.68,502.48,262.21,508.64Zm49.17,6.27c8.5-57.28,10.71-117.11,1.26-174.41-1.67,8.2-5.78,16.11-5.57,24.58.52,20.91.61,42.16-2.67,62.86-2,9.4-5.29,18.47-7.81,27.74-1,15.85-1.79,32-.9,47.88,10.82-26.15,9.29-55.69,17.87-82.33-2.68,29.5-5.9,60-16.83,87.72C301.93,510.12,306.64,512.58,311.38,514.91ZM266.56,150.67c-5.71,9.07-3.27,11.58,2.59,19.49,5.49,7.06,10.53,14.55,17,20.78,4.78,3.88,9.19,8.21,14.17,11.84a73.92,73.92,0,0,1,12.9-23.23c-3.05-3.47-6.94-6-10.69-8.66-6.85-4.52-13.48-9.38-20.63-13.4C276.82,155.11,271.34,153.65,266.56,150.67ZM235.85,438.12c-.61,13.06-1,26.15-2.12,39.17a14,14,0,0,0,.27,4,411.52,411.52,0,0,0,17.8-49.88C246.54,433.76,241,435.53,235.85,438.12ZM193.12,225.63c-11.51,8.05-23.3,17.2-30.81,29.26-1.34,2-.65,4.48-.63,6.72.57,7.45,1,15,2.65,22.3,3.46,14.11,48.45-9.26,57.15-12.93.17-7-3.72-12.94-7.07-18.75-4.35.46-8.69,1.18-13.07.9-7.19-.62-13.66,3.68-20.74,3.77,3.7-3.15,8.41-4.68,13-6C193.52,242.46,193.22,234.05,193.12,225.63Zm76.46-95.95c-2.4,3.65-.38,8.08-.68,12.11,8.49-4,18.68-3,17.05-15.29-2-4.63-6.09-8-8.54-12.34C275.09,119.47,272.41,124.62,269.58,129.68Zm5.52,283.39c-3.73,6.1-3.44,14.05-5.5,20.86-5.27,24.34-4.34,49.57-4,74.33C276.73,478.2,278.5,444.71,275.1,413.07ZM260.26,80.59a53.43,53.43,0,0,0-27.81,4.23c-.86,2-.67,4.28-1,6.4,4.45-1.32,8.27-4.22,12.84-5.17C249.74,84.74,256.05,84.83,260.26,80.59Zm28.16,23.73c-2.82,2.48-7,4.25-8.25,8,1.78,4,4.86,7.2,7.64,10.49C288.12,116.67,288.26,110.49,288.42,104.32Zm-56.93-6.5c8.67-6.65,23.89,4.67,29.22-4.38-8.2,1.83-16.31-1-24.53-.88,9.34-6,19.2-2.71,28.16-11.09,3.47,10,8.57,9.71,13.27,17.12-12.34-6.36-13.48-1-13.42-.53,4.41,0,9.75,1.11,13.32,3.78l-.21,2.61c-11.83-5.44-22.88-3.24-17.37,11.17a54,54,0,0,1,2.54-9.93c1.37,1.88,2.54,5.23,5.41,5.23,3.34.54,5.51-1.42,8.43-2.65-2.11,8-6.95,14.93-10.48,22.35-1.88-1.29-3.73-2.64-5.57-4a50.44,50.44,0,0,0,.22-6.84c-2,1.49-2.12,4.93-4.88,5.36-2.6.51-5.92-.48-7.07-3,.07-1.62.16-3.24.29-4.85a16.84,16.84,0,0,0-3.88,5.42,38.43,38.43,0,0,0-14.41,4.72c1-7,.67-14,.39-21C230.89,103.58,229.66,100.28,231.49,97.82Zm4.09,2.68c6.55,9.9,9.95,10.48,17.25.83C247.39,99.13,241.17,98.46,235.58,100.5Zm56.78,140.26c-.09,5.87.69,11.7.83,17.56,4,2.29,8.75,4.07,11.14,8.36C304.46,240.51,307.6,256.9,292.36,240.76ZM221.3,528.18a30.36,30.36,0,0,1,3-12.13c3.29-6.67,4.33-14.1,5.69-21.33,1.69-18.45,1.75-37.13,2.69-55.69q-5.82,1.86-11.7,3.53c-3,.62-2.53,4.31-2.94,6.64-2.81,22-6.76,43.76-13.09,65.06-7.1-4.11-15.85-2.73-23.67-3.27-2.89,2.26-6,4.36-8.45,7-2,2.29-.65,6.72-4,7.88.25-11.1-13.82,8.89-5.92,12.85,8.26,1.16,16.42-1,24.6-1.67,2.38-1.37,4.06-3.84,6.81-4.57C203.2,530.22,212,527.41,221.3,528.18ZM219.64,531c-6.17-.9-12.09,1.65-18.07,2.73-3.24.78-6.9,1.06-9.4,3.51-1.64,1.6-4.36,3.06-3.71,5.79-.29,1.51,1.2,2.26,2.5,2.06,4.95-.25,9.86.83,14.8.34,6.68-.37,12.64-3.73,18.65-6.33C223.13,536.34,223.42,531.59,219.64,531ZM185.74,227.4c9.46-6.74,17.63-15.05,25.9-23.15,10.1-11.85,12.46-28.34,12.55-43.43-1.25,5.46-2.49,11-4.85,16.08-3.18,6.78-5,14.23-9.31,20.44-5.28,8.13-11.83,16.31-21.15,19.88-6.72-10.29-10.28-24.4-22.57-29.44-3.68,15.94-4.42,32.33-6,48.57-.18,5.19-1.05,10.42.08,15.56A105.5,105.5,0,0,1,185.74,227.4Zm83.1,301.25c-5.37-4.33-4.92-7.78-4.95-14.1-7.68,4-13.89,10.06-20.08,16,2-8.18,11.06-13.34,17.47-18-10-9.8-34.3-6.2-35.67,9.84-2.14,5.28-.65,11,1.79,15.91,8.56,8.41,23.1,5.54,32.66.28C263.72,536.13,265.41,531.5,268.84,528.65Zm-78.92-315.3c7.14-3,11.82-9.5,16.3-15.48a21.47,21.47,0,0,0,3.34-19.14c-2.41-7.18-8.12-12.68-10.45-19.91-10.8,6.66-24.88,14.58-31.54,25.59C180.09,191.51,183.18,201.64,189.92,213.35Zm34.15-93.69c-4.24-4.64-10.16-7.37-14.15-12.28-3.71,11.86-5,24.26-7.09,36.46,3.6-2.29,6.93-5,10.69-7.07C219.39,133.42,231,127.53,224.07,119.66Zm-10.52,63.25c2.57-5.89,5.42-11.75,6.63-18.1,2.15-11.12,5.28-22.06,6.49-33.35-9.35,8.18-30.68,13.79-23.34,30C207.24,168.34,212.56,174.77,213.55,182.91Zm57.93,347.68c-10.94,8.37-4.49,10.66,5,14.5,7.34,1.44,15.41,3.09,22.52-.12C298.43,534.51,279.9,530.78,271.48,530.59ZM328,363c10.37,7.64,24.72,5.5,34.13,14.48-1.38-16.7-2.59-32.57-4.11-49.25-12,2.62-23.38,6-32.43,14.17C318.14,348.16,321.14,358.6,328,363Zm-6.83-72.58c-.69,5.3,4.6,10.6,10,9.42,8.69-2.34,13-7.06,22.11-1.71-.72-6.31-1.77-12.59-3-18.81C339.25,275.91,326.37,279.72,321.13,290.41Zm66.18-16.53q-3.26-15.63-7.55-31a289.66,289.66,0,0,0-17.28-45c-3.14-6.32-8.53-22.31-17.17-21.23-8.79,1.2-17.53,2.77-26.25,4.4-1.64.42-4,.36-4.44,2.44-7.9,35.49-6.95,72.53-7.11,108.75C306,314.75,340,326.32,353.57,309.3c4.66-4.87-3.31-10.91-8.24-10.6-23.2,7.41-28.37,4.33-28-20.52-.5-5.53-.24-11.08-.25-16.63.37-18.43.42-36.89,1-55.31.69-6.09.62-12.51,3.29-18.16-.85,32.43-3,64.93-.54,97.35,11.27-15.7,38.34-12.39,48.38,3-5-36-14.07-71.7-31-104,17.46,14.63,35.46,90.56,33.59,113.81-5.74-7.59-7.86-15.84-18.24-18.18-.2,6.83,6.88,26.67,3.06,30.38-12.38,15.29-29.93,10.4-44.7,1.57.71,12.58,3.45,25,5.43,37.47,9.43-27,47.56-17.63,63.2-37.85C392.61,297.61,391.32,290.94,387.31,273.88ZM292.66,511.15c1.18-37-.47-73.58-6.64-110.13-3.28,2.38-5.69,5.72-7.94,9-.07,6.64,1.31,13.26,1.61,19.9.36,28.55-2.7,57.31-12.61,84.18-1.67,15.24,6.45,12.45,17.24,15.42,5,2,10.43,3.6,14.41,7.42,1.9,1.79,2.53,5.32,5.59,5.52,4,.47,17.22,1.56,18.84-2.71-1.38-4.6-4.29-8.49-6.52-12.68C312.83,517.06,302.7,512.62,292.66,511.15Zm25.62-155.74c1.87,11,3.85,36.95,4.05,48.08,7.75,5.85,9.06,23.53,13.89,20.9,6-19.66,31.08-22.19,25.13-39.54C358.85,368.64,326.64,376.86,318.28,355.41Zm-17.6-143.69c-2.42,8-4.87,16.05-5.69,24.38-.47,5.6,5.62,8.33,9.72,10.65,1.12-19.09,3.31-38.07,4.86-57.12C305.54,196.51,303.15,204.19,300.68,211.72ZM196.53,223.3a235.71,235.71,0,0,0,.18,26.71,74,74,0,0,0,25.52-2.57,55.63,55.63,0,0,1,4.58-14c2.25-2.33,4.8.62,7.08,1.32,4.67-.61,6.75-5.91,11.42-6.39,2.88-.29,7.54.41,8.23,6.67a7.13,7.13,0,0,1,4.57,3.08,5.75,5.75,0,0,1,.05,5.38c3.72,1.44,3.48,5.58,2.21,8,1.54,1.6,3.25,4.42,1.93,6.77-2.78,2.91-6,2.25-9.51,3.74-6.62,2.72-13.59,4.45-20.32,6.82C226,273,218.39,275,211.84,279c15,5.21,18.58,5.48,34.14,2.47a167.13,167.13,0,0,0,25.71-9.19c7-3,12.55-8.51,18.22-13.5,0-8.47,0-17-1.06-25.37-.94-7.47-.77-15.24-3.52-22.36-4.86,2.6-9.47,6.55-15.21,6.76,4.61-3.15,9.24-6.26,13.84-9.44q-8.19-11.39-16.39-22.77c-3.82-.88-12.77-3.26-18.59-4.74a5.53,5.53,0,0,1-9.21-.66c-2.86.54-7.47,1.52-14.51,3.25C217.13,207.4,212.59,206.26,196.53,223.3Zm21.19,28.11c1.21,3.31,3.45,6.13,4.72,9.41a37.55,37.55,0,0,1,2.17,8.85c2.14-1.24,5.14-1.88,6.43-4a31.6,31.6,0,0,0-5.44-13.2C223.71,249.9,220.32,250.83,217.72,251.41ZM249,231.86a5.09,5.09,0,0,0-5.77.32c-2.93,2.29-5.66,5.14-9.33,6.23-1.94-.29-3.35-1.87-5-2.78-7.91,21.18-.55,6.32,5.3,29.33,8.43-1.36,16.64-5.84,22.14-6.62,5.79-.82,2.34-5.82-.14-6.17,2.48-1.55,3.77-7-1.91-7.51,2.93-1.55,2.86-7.27-3.45-7.62C250.83,237,251.9,233.67,249,231.86Zm-20.61-112.3q-.21-7.94-.41-15.86c-.42-5.9,1.23-11.65.94-17.57-5.22,2.4-16.23,5.65-18,11.42C208.39,107.48,223.06,113.12,228.39,119.56ZM227,165.82c2.12,2,9.11,5.57,13.64,7.77a5.49,5.49,0,0,1,2.16-1.36,5.56,5.56,0,0,1,6.3,2.09c3.61-1.19,7.93-3,9.69-4.22-.33-1.28-.78-3.17-1.1-4.44-3.65,3.41-10.14,3.74-13.7-.19-5.44,3.87-8,.9-12.63-2.29-2.43-1.55-3.11-7.89-3.83-10.38C227.09,156.06,227.24,162.53,227,165.82Zm11.29-30.6c2.9-2,12.7-1.5,13.1-5.2-.21-1.29-1.55-2-2.48-2.75-3.83-2.88-8.79-.61-12.81.63-6.3,2.1-6.73,9.78-7.47,15.33A59.33,59.33,0,0,1,238.32,135.22Zm-12.66,45.11a109,109,0,0,0,13.4-2.9,6.73,6.73,0,0,1,.12-1.1c-2.82-1.39-9.54-4.77-12.5-6.72A61,61,0,0,1,225.66,180.33Zm62.82-87.42c-.18-9.66-1.68-20.31-9.71-26.74,1.39,6.48,3.68,12.82,3.83,19.51A52.92,52.92,0,0,0,288.48,92.91Zm-9.15-10.14c-.86-7.2-2.42-14.61-6.3-20.82-4.69-4.92-11-9.25-18.06-9-9.63.14-19.8,3-26.73,10-6.83,7.33-9.82,17.34-13.86,26.31C235.36,79.06,256.86,72,279.33,82.77ZM193.89,456.86c-4.08,17.05-7.16,34.44-10.55,51.67,6.63-1.09,13.32.36,19.9,1.23,6.68-21.24,10.16-43.44,12.52-65.54a49.09,49.09,0,0,0-18.52,7c-1.15,2.68-.56,5.74-.43,8.58.58,12.51.7,25.8-4.39,37.47C193.07,483.85,195,470.41,193.89,456.86Zm86.17-350a38.89,38.89,0,0,0,8.9-7.57c-1.5-3.15-4-5.66-6.38-8.14C282,96.4,280.34,101.5,280.06,106.82Zm-21.64,22.32c-1.2-.4-2.78-1.23-3.89-.23-.05,1.39-.35,3.09.72,4.21,2.39,2.58,5.39,4.66,7.21,7.73,1.06,2.06,1.72,4.29,2.67,6.41C267.58,139.42,266.67,132.58,258.42,129.14Z" fill="#fafafa"/>
    <g fill="#fdda2a" stroke="#111" stroke-width="3">
      <path d="M329.57,124l-1-6.29c-.51-3.28-12.37-1.44-11.86,1.84l1,6.29a14,14,0,0,0-6,13.71l5.82,37.55,27.67-4.29-5.82-37.55A14,14,0,0,0,329.57,124Z"/>
      <path d="M341.55,135.89l-31.63,4.9a2,2,0,0,1-2.28-1.67l-.31-2a2,2,0,0,1,1.67-2.29l31.63-4.9a2,2,0,0,1,2.28,1.67l.3,2A2,2,0,0,1,341.55,135.89Zm3.66,10.56-.31-2a2,2,0,0,0-2.28-1.67L311,147.71a2,2,0,0,0-1.67,2.28l.3,2a2,2,0,0,0,2.29,1.67l31.62-4.91A2,2,0,0,0,345.21,146.45Zm4,25.69-.3-2a2,2,0,0,0-2.29-1.67L315,173.4a2,2,0,0,0-1.67,2.29l.31,2a2,2,0,0,0,2.28,1.67l31.62-4.9A2,2,0,0,0,349.19,172.14Zm-2-12.84-.31-2a2,2,0,0,0-2.28-1.67L313,160.56a2,2,0,0,0-1.67,2.28l.31,2a2,2,0,0,0,2.28,1.67l31.62-4.91A2,2,0,0,0,347.2,159.3Z" stroke-width="2.6"/>
      <path d="M242.5,230.83l-55.57-72.64c2.14-5.82,2.12-17-10.91-36.53a64.85,64.85,0,0,1-6.65-12.09c7.44-.83,11.32-10.07,6.62-16a10,10,0,0,0-14-1.88c-11.13,8.5.66,24.31,7.3,34.28s9.65,17,10.12,22.33L135.23,90.46a64.1,64.1,0,0,1,1.32-13.31c6.37,3.33,14.48-1.29,13.69-8.84-.29-5.52-4.39-9-9.9-8.67-9.47.5-10.87,12.14-10.83,23.32l-5.73-7.5c-1.19-1.65-5-7.71-3.69-17.19L105,59.09l-4.78,14.35c9.48,1.27,14.34,6.5,15.61,8.09l5.73,7.5c-10.78-3-22.37-4.71-25.35,4.3-1.73,5.24.51,10.1,5.75,11.84,7.08,2.74,13.67-3.86,12.14-10.88a64.72,64.72,0,0,1,13.18,2.23l44.17,57.87c-5-1.86-11-6.61-18.87-15.65s-20-24.58-31.14-16.08a10,10,0,0,0-1.88,14c4.45,6.09,14.4,4.79,17.15-2.18a64.57,64.57,0,0,1,9.91,9.61c15.45,17.73,26.18,20.68,32.36,20.15l54.69,71.69C236.89,236.22,238.84,233.68,242.5,230.83Z"/>
      <path d="M268.74,265.36l-6.79-8.9c.72,3.1-8.25,3.88-9.12,4.43l8,10.54a5,5,0,0,0,7.94-6.07Z"/>
      <path d="M109.75,44.78,89.94,59.9a18.62,18.62,0,0,0-10.15,8.9s9.79,7.9,22.25-.15c3,1.57,6.16.58,9-1.61s4.65-5,3.93-8.28c11-9.9,6-21.42,6-21.42A18.55,18.55,0,0,0,109.75,44.78Z"/>
      <path d="M99,40.32A19,19,0,0,0,81.94,28.89a19,19,0,0,0,6.52,19.49A18.84,18.84,0,0,0,71.9,58.47s9.19,7.1,21.64-.95c3,1.57,6.16.59,9-1.6s4.65-5,3.93-8.29c11-9.89,6.62-20.63,6.62-20.63A18.84,18.84,0,0,0,99,40.32Z"/>
    </g>
  </g>
  <path id="border" d="M497,330V3H3V330C3,466.41,113.59,577,250,577S497,466.41,497,330Z" fill="none" stroke="#111" stroke-width="6"/>
</svg>
